<svg width="150" height="150" viewBox="0 0 150 150" fill="none" xmlns="http://www.w3.org/2000/svg">
<path d="M75 12.5C40.5 12.5 12.5 40.5 12.5 75C12.5 109.5 40.5 137.5 75 137.5C109.5 137.5 137.5 109.5 137.5 75C137.5 40.5 109.5 12.5 75 12.5ZM75 125C47.4375 125 25 102.562 25 75C25 47.4375 47.4375 25 75 25C102.562 25 125 47.4375 125 75C125 102.562 102.562 125 75 125ZM80.5625 69.375C69.4375 65.6875 64.0625 63.375 64.0625 57.5C64.0625 51.125 71 48.8125 75.375 48.8125C83.5625 48.8125 86.5625 55 87.25 57.1875L97.125 53C96.1875 50.25 92 41.0625 80.5 39.0625V31.25H69.5625V39.125C53.3125 42.625 53.1875 56.9375 53.1875 57.625C53.1875 71.8125 67.25 75.8125 74.125 78.3125C84 81.8125 88.375 85 88.375 91C88.375 98.0625 81.8125 101.063 76 101.063C64.625 101.063 61.375 89.375 61 88L50.625 92.1875C54.5625 105.875 64.875 109.562 69.5 110.687V118.75H80.4375V111C83.6875 110.438 99.3125 107.313 99.3125 90.875C99.375 82.1875 95.5625 74.5625 80.5625 69.375Z" fill="#3B82F6"/>
</svg>
